<svg width="715" height="214" viewBox="0 0 715 214" fill="none" xmlns="http://www.w3.org/2000/svg">
<path d="M42.88 165L2.08 48.68H18.56L49.92 144.2L51.04 149.48L52.32 144.36L83.52 48.68H99.36L58.88 165H42.88ZM111.821 165V48.68H126.541V165H111.821ZM181.826 165V115.56L141.986 48.68H159.266L196.706 111.08V165H181.826ZM201.186 104.84C199.906 103.187 198.786 101.267 197.826 99.08C196.92 96.8933 196.44 94.5733 196.386 92.12C196.333 89.6667 197.026 87.1867 198.466 84.68L218.626 48.68H235.426L201.186 104.84Z" fill="black"/>
<path d="M314.222 167.719L336.956 167.719L317.1 121.676L299.546 129.734L314.222 167.719Z" fill="url(#paint0_linear_118_8)"/>
<path d="M283.719 46.2806L308.18 102.396L289.763 102.396L283.719 91.4605L275.086 110.166C290.741 105.101 326.885 107.48 343 109.302C274.396 113.216 244.391 134.914 237.964 145.273L283.719 46.2806Z" fill="url(#paint1_linear_118_8)"/>
<path d="M249.762 167.432L222.999 167.432C261.675 123.23 313.742 113.139 334.941 113.619C293.272 119.144 260.793 151.796 249.762 167.432Z" fill="url(#paint2_linear_118_8)"/>
<path d="M359.24 165V48.68H373.96V165H359.24ZM401.565 165V48.68H416.765L473.245 138.92L475.165 144.2L474.845 138.6V48.68H488.285V165H474.685L416.445 72.04L414.205 66.6L414.525 72.04V165H401.565ZM515.809 165V48.68H582.049V60.2H531.009V165H515.809ZM537.089 109.64C537.835 107.613 538.795 105.747 539.969 104.04C541.142 102.333 542.609 100.973 544.369 99.96C546.129 98.9467 548.289 98.44 550.849 98.44H576.609V109.64H537.089ZM651.207 167.24C641.234 167.24 632.167 164.84 624.007 160.04C615.847 155.187 609.341 148.253 604.487 139.24C599.687 130.173 597.287 119.347 597.287 106.76C597.287 96.5733 598.887 87.6933 602.087 80.12C605.341 72.5467 609.607 66.2533 614.887 61.24C620.167 56.2267 625.981 52.4933 632.327 50.04C638.674 47.5333 644.967 46.28 651.207 46.28C659.901 46.28 667.581 47.88 674.247 51.08C680.968 54.2267 686.621 58.6 691.207 64.2C695.794 69.7467 699.261 76.1733 701.607 83.48C703.954 90.7333 705.128 98.4933 705.128 106.76C705.128 115.987 703.688 124.333 700.807 131.8C697.981 139.213 694.061 145.56 689.048 150.84C684.034 156.12 678.274 160.173 671.767 163C665.314 165.827 658.461 167.24 651.207 167.24ZM651.207 155.72C658.727 155.72 665.314 153.56 670.967 149.24C676.621 144.867 680.994 138.973 684.087 131.56C687.234 124.147 688.808 115.88 688.808 106.76C688.808 96.7333 687.101 88.0667 683.688 80.76C680.327 73.4533 675.794 67.8267 670.087 63.88C664.381 59.9333 658.087 57.96 651.207 57.96C644.327 57.96 638.034 59.9333 632.327 63.88C626.621 67.8267 622.061 73.4533 618.647 80.76C615.287 88.0667 613.607 96.7333 613.607 106.76C613.607 114.013 614.541 120.627 616.407 126.6C618.274 132.573 620.887 137.747 624.247 142.12C627.661 146.44 631.661 149.8 636.247 152.2C640.834 154.547 645.821 155.72 651.207 155.72Z" fill="black"/>
<defs>
<linearGradient id="paint0_linear_118_8" x1="318.251" y1="167.719" x2="318.251" y2="121.676" gradientUnits="userSpaceOnUse">
<stop stop-color="#4A6BFF"/>
<stop offset="1" stop-color="#FF3EF9"/>
</linearGradient>
<linearGradient id="paint1_linear_118_8" x1="290.482" y1="145.273" x2="290.482" y2="46.2806" gradientUnits="userSpaceOnUse">
<stop stop-color="#4A6BFF"/>
<stop offset="1" stop-color="#FF3EF9"/>
</linearGradient>
<linearGradient id="paint2_linear_118_8" x1="278.97" y1="167.432" x2="278.97" y2="113.603" gradientUnits="userSpaceOnUse">
<stop stop-color="#4A6BFF"/>
<stop offset="1" stop-color="#FF3EF9"/>
</linearGradient>
</defs>
</svg>
