<svg width="712" height="214" viewBox="0 0 712 214" fill="none" xmlns="http://www.w3.org/2000/svg">
<path d="M42.88 165L2.08 48.68H18.56L49.92 144.2L51.04 149.48L52.32 144.36L83.52 48.68H99.36L58.88 165H42.88ZM111.821 165V48.68H126.541V165H111.821ZM181.826 165V115.56L141.986 48.68H159.266L196.706 111.08V165H181.826ZM201.186 104.84C199.906 103.187 198.786 101.267 197.826 99.08C196.92 96.8933 196.44 94.5733 196.386 92.12C196.333 89.6667 197.026 87.1867 198.466 84.68L218.626 48.68H235.426L201.186 104.84Z" fill="white"/>
<path d="M310.137 165L331.853 165L312.886 121.019L296.118 128.716L310.137 165Z" fill="url(#paint0_linear_137_23)"/>
<path d="M281 49L304.365 102.602L286.773 102.602L281 92.1563L272.754 110.024C287.707 105.186 322.233 107.458 337.626 109.199C272.094 112.937 243.433 133.663 237.294 143.559L281 49Z" fill="url(#paint1_linear_137_23)"/>
<path d="M248.564 164.725L223 164.725C259.944 122.503 309.679 112.864 329.929 113.322C290.126 118.6 259.101 149.79 248.564 164.725Z" fill="url(#paint2_linear_137_23)"/>
<path d="M353.866 165V48.68H368.586V165H353.866ZM396.191 165V48.68H411.391L467.871 138.92L469.791 144.2L469.471 138.6V48.68H482.911V165H469.311L411.071 72.04L408.831 66.6L409.151 72.04V165H396.191ZM510.435 165V48.68H576.675V60.2H525.635V165H510.435ZM531.715 109.64C532.461 107.613 533.421 105.747 534.595 104.04C535.768 102.333 537.235 100.973 538.995 99.96C540.755 98.9467 542.915 98.44 545.475 98.44H571.235V109.64H531.715ZM645.833 167.24C635.86 167.24 626.793 164.84 618.633 160.04C610.473 155.187 603.967 148.253 599.113 139.24C594.313 130.173 591.913 119.347 591.913 106.76C591.913 96.5733 593.513 87.6933 596.713 80.12C599.967 72.5467 604.233 66.2533 609.513 61.24C614.793 56.2267 620.607 52.4933 626.953 50.04C633.3 47.5333 639.593 46.28 645.833 46.28C654.527 46.28 662.207 47.88 668.873 51.08C675.593 54.2267 681.247 58.6 685.833 64.2C690.42 69.7467 693.887 76.1733 696.233 83.48C698.58 90.7333 699.753 98.4933 699.753 106.76C699.753 115.987 698.313 124.333 695.433 131.8C692.607 139.213 688.687 145.56 683.673 150.84C678.66 156.12 672.9 160.173 666.393 163C659.94 165.827 653.087 167.24 645.833 167.24ZM645.833 155.72C653.353 155.72 659.94 153.56 665.593 149.24C671.247 144.867 675.62 138.973 678.713 131.56C681.86 124.147 683.433 115.88 683.433 106.76C683.433 96.7333 681.727 88.0667 678.313 80.76C674.953 73.4533 670.42 67.8267 664.713 63.88C659.007 59.9333 652.713 57.96 645.833 57.96C638.953 57.96 632.66 59.9333 626.953 63.88C621.247 67.8267 616.687 73.4533 613.273 80.76C609.913 88.0667 608.233 96.7333 608.233 106.76C608.233 114.013 609.167 120.627 611.033 126.6C612.9 132.573 615.513 137.747 618.873 142.12C622.287 146.44 626.287 149.8 630.873 152.2C635.46 154.547 640.447 155.72 645.833 155.72Z" fill="white"/>
<defs>
<linearGradient id="paint0_linear_137_23" x1="313.985" y1="165" x2="313.985" y2="121.019" gradientUnits="userSpaceOnUse">
<stop stop-color="#3AF2FF"/>
<stop offset="1" stop-color="#FF25C5"/>
</linearGradient>
<linearGradient id="paint1_linear_137_23" x1="287.46" y1="143.559" x2="287.46" y2="49" gradientUnits="userSpaceOnUse">
<stop stop-color="#3AF2FF"/>
<stop offset="1" stop-color="#FF25C5"/>
</linearGradient>
<linearGradient id="paint2_linear_137_23" x1="276.464" y1="164.725" x2="276.464" y2="113.307" gradientUnits="userSpaceOnUse">
<stop stop-color="#3AF2FF"/>
<stop offset="1" stop-color="#FF25C5"/>
</linearGradient>
</defs>
</svg>
